# xmcd CD database file
#
# Track frame offsets:
#	150
#	12515
#	25033
#	36731
#	50536
#	65282
#	77657
#	91462
#	104754
#	118083
#	132506
#	144739
#	156931
#	171470
#	184711
#	200139
#	211078
#	223795
#	238850
#	253730
#	267235
#	280476
#	292425
#	307444
#
# Disc length: 4290 seconds
#
# Revision: 1
# Processed by: cddbd v1.5.2PL0 Copyright (c) Steve Scherf et al.
# Submitted via: CDex 1.51
#
DISCID=9310c018
DTITLE=Various Artist - Hard Time Blues - 1927-1960 - CD1
DYEAR=2015
DGENRE=Blues
TTITLE0=Josh White - Defense Factory Blues
TTITLE1=Josh White - Uncle Sam Says
TTITLE2=Brownie McGhee - Million Lonesome Women
TTITLE3=Tampa Red - You Better Be Ready To Go
TTITLE4=Wee Bea Booze - Uncle Sam Came And Get It
TTITLE5=Big Bill Bronzy - The Number Of Mine
TTITLE6=Big Bill Bronzy - Get Back (Black Brown And White)
TTITLE7=Big Bill Bronzy - Cell N°13 Blues
TTITLE8=Big Maceo - County Jail Blues
TTITLE9=Ramblin' Thomas - No Job Blues
TTITLE10=Jimmy Jordan - There Is No Justice
TTITLE11=Bukka White - Parchman Farm Blues
TTITLE12=Lowell Fulson - I'm Prison Bound (Doin' Time Blues)
TTITLE13=Hopkins Lightin' - Penitentiary Blues
TTITLE14=Huddie Ledbetter - The Bourgeois Blues
TTITLE15=Lead Belly - Jim Crow (Blues)
TTITLE16=Josh White - Jim Crow Train
TTITLE17=Bessie Smith - Back-Water Blues
TTITLE18=Joe McCoy - When The Levee Breaks
TTITLE19=Arnold Kokomo - Mean Old Twister
TTITLE20=Saint Louis Jimmy - Florida Hurricane
TTITLE21=Ralph Willis - Income Tax Blues
TTITLE22=Sonny Boy Williamson - Collector Man Blues
TTITLE23=Joe Stone - It's Hard Time
EXTD=YEAR: 2015
EXTT0=
EXTT1=
EXTT2=
EXTT3=
EXTT4=
EXTT5=
EXTT6=
EXTT7=
EXTT8=
EXTT9=
EXTT10=
EXTT11=
EXTT12=
EXTT13=
EXTT14=
EXTT15=
EXTT16=
EXTT17=
EXTT18=
EXTT19=
EXTT20=
EXTT21=
EXTT22=
EXTT23=
PLAYORDER=
